/* XPM */
static char * file_dot_xbm_xpm[] = {
"48 48 226 2",
"  	c None",
" .	c #000000",
" +	c #FFFFFF",
" @	c #AAAAAA",
" #	c #E5E5E5",
" $	c #383838",
" %	c #717171",
" &	c #1C1C1C",
" *	c #E2E2E2",
" =	c #C6C6C6",
" -	c #555555",
" ;	c #8D8D8D",
" >	c #FDFDFD",
" ,	c #FCFCFC",
" '	c #FBFBFB",
" )	c #FAFAFA",
" !	c #F8F8F8",
" ~	c #F7F7F7",
" {	c #F6F6F6",
" ]	c #F5F5F5",
" ^	c #F4F4F4",
" /	c #F2F2F2",
" (	c #F1F1F1",
" _	c #F0F0F0",
" :	c #EFEFEF",
" <	c #EEEEEE",
" [	c #ECECEC",
" }	c #EBEBEB",
" |	c #EAEAEA",
" 1	c #E9E9E9",
" 2	c #E8E8E8",
" 3	c #E6E6E6",
" 4	c #E4E4E4",
" 5	c #E3E3E3",
" 6	c #E1E1E1",
" 7	c #E0E0E0",
" 8	c #DFDFDF",
" 9	c #DEDEDE",
" 0	c #DDDDDD",
" a	c #DBDBDB",
" b	c #DADADA",
" c	c #D9D9D9",
" d	c #D8D8D8",
" e	c #D7D7D7",
" f	c #D5D5D5",
" g	c #D4D4D4",
" h	c #EDEDED",
" i	c #E7E7E7",
" j	c #DCDCDC",
" k	c #D6D6D6",
" l	c #D3D3D3",
" m	c #0A0A0A",
" n	c #2A2A2A",
" o	c #0F0F0F",
" p	c #262626",
" q	c #171717",
" r	c #1E1E1E",
" s	c #161616",
" t	c #252525",
" u	c #242424",
" v	c #070707",
" w	c #232323",
" x	c #0E0E0E",
" y	c #151515",
" z	c #1B1B1B",
" A	c #141414",
" B	c #222222",
" C	c #0D0D0D",
" D	c #232121",
" E	c #060606",
" F	c #B4B4B4",
" G	c #C9C9C9",
" H	c #D2D2D2",
" I	c #F9F9F9",
" J	c #2B2B2B",
" K	c #999999",
" L	c #353535",
" M	c #6A6A6A",
" N	c #4B4B4B",
" O	c #545454",
" P	c #606060",
" Q	c #3E3E3E",
" R	c #737373",
" S	c #292929",
" T	c #6B6B6B",
" U	c #181818",
" V	c #666666",
" W	c #2E2E2E",
" X	c #626262",
" Y	c #454545",
" Z	c #4E4E4E",
" `	c #585858",
". 	c #393939",
"..	c #1C1916",
".+	c #828282",
".@	c #B2B2B2",
".#	c #D0D0D0",
".$	c #D1D1D1",
".%	c #282828",
".&	c #909090",
".*	c #363636",
".=	c #5E5E5E",
".-	c #333333",
".;	c #6D6D6D",
".>	c #212121",
".,	c #111111",
".'	c #565656",
".)	c #2F2F2F",
".!	c #4F4F4F",
".~	c #3F3F3F",
".{	c #575757",
".]	c #646464",
".^	c #1D1A17",
"./	c #7B7B7B",
".(	c #ABABAB",
"._	c #CECECE",
".:	c #979797",
".<	c #3B3B3B",
".[	c #5D5D5D",
".}	c #4A4A4A",
".|	c #696969",
".1	c #373737",
".2	c #797979",
".3	c #676767",
".4	c #1A1A1A",
".5	c #131313",
".6	c #343434",
".7	c #444444",
".8	c #616161",
".9	c #707070",
".0	c #22211A",
".a	c #818181",
".b	c #CDCDCD",
".c	c #FEFEFE",
".d	c #010101",
".e	c #A6A6A6",
".f	c #CBCBCB",
".g	c #CFCFCF",
".h	c #F3F3F3",
".i	c #4D4D4D",
".j	c #505050",
".k	c #9D9D9D",
".l	c #CCCCCC",
".m	c #989898",
".n	c #C8C8C8",
".o	c #969696",
".p	c #C7C7C7",
".q	c #CACACA",
".r	c #3A3A3A",
".s	c #959595",
".t	c #C4C4C4",
".u	c #949494",
".v	c #C3C3C3",
".w	c #939393",
".x	c #C2C2C2",
".y	c #C5C5C5",
".z	c #929292",
".A	c #C1C1C1",
".B	c #919191",
".C	c #C0C0C0",
".D	c #BFBFBF",
".E	c #8F8F8F",
".F	c #BDBDBD",
".G	c #8E8E8E",
".H	c #BCBCBC",
".I	c #BEBEBE",
".J	c #BBBBBB",
".K	c #8C8C8C",
".L	c #BABABA",
".M	c #B9B9B9",
".N	c #8B8B8B",
".O	c #B8B8B8",
".P	c #8A8A8A",
".Q	c #B7B7B7",
".R	c #898989",
".S	c #B5B5B5",
".T	c #020202",
".U	c #B6B6B6",
".V	c #101010",
".W	c #080808",
".X	c #050505",
".Y	c #1F1F1F",
".Z	c #090909",
".`	c #474747",
"+ 	c #B3B3B3",
"+.	c #787878",
"++	c #414141",
"+@	c #494949",
"+#	c #121212",
"+$	c #424242",
"+%	c #4C4C4C",
"+&	c #404040",
"+*	c #636363",
"+=	c #868686",
"+-	c #515151",
"+;	c #5C5C5C",
"+>	c #313131",
"+,	c #5A5A5A",
"+'	c #525252",
"+)	c #3C3C3C",
"+!	c #2C2C2C",
"+~	c #6F6F6F",
"+{	c #191919",
"+]	c #0B0B0B",
"+^	c #040404",
"+/	c #030303",
"+(	c #0C0C0C",
"+_	c #B1B1B1",
"+:	c #727272",
"+<	c #6C6C6C",
"+[	c #5B5B5B",
"+}	c #686868",
"+|	c #595959",
"+1	c #535353",
"+2	c #A5A5A5",
"+3	c #A7A7A7",
"+4	c #A2A2A2",
"+5	c #A4A4A4",
"+6	c #A3A3A3",
"+7	c #9F9F9F",
"+8	c #A0A0A0",
"+9	c #9C9C9C",
"+0	c #9B9B9B",
"+a	c #A9A9A9",
"+b	c #B0B0B0",
"+c	c #AFAFAF",
" . . . . . . . . . . . . . . . . . . . . . . . . . . . . . . . . . . . . . . . . . . . . . . . .",
" . . . . . . . . . . . . . . . . . . . . . . . . . . . . . . + @ . . . . . . . . . . . . . . . .",
" . . . . # . # . . . . . . . . . . . . . . . . . . . . . . . + @ . . . . . . . . . . . . . . . .",
" . . # . . . . . # . . . . . . . . . . . . . $ @ % . $ @ $ . + @ % @ $ . . % @ . @ $ . % @ . . .",
" . . . . # # # . . . . . . . . . . . . . . . & * + & = * & . + * + + + & . @ + * + + * + + = . .",
" . . . # . . . # . . . . . . . . . . . . . . . - + = + $ . . + * & & + = . @ + - & + @ & % + . .",
" . . # . . # . . # . . . . . . . . . . . . . . . $ + ; . . . + @ . . @ + . @ + . . + - . - + . .",
" . . . # . . . # . . . . . . . . . . . . . . . & + + * & . . + @ . . * + . @ + . . + - . - + . .",
" . . . . # # # . . . . . . . . . . . . $ @ % . ; + ; + % . . + * - % + ; . @ + . . + - . - + . .",
" . . # . . . . . # . . . . . . . . . . - + @ $ + * . ; + $ . + = = + @ . . @ + . . + - . - + . .",
" . . . . # . # . . . . . . . . . . . . . . . . . . . . . . . . . . . . . . . . . . . . . . . . .",
" . . . . . . . . . . . . . . . . . . . . . . . . . . . . . . . . . . . . . . . . . . . . . . . .",
" . . . . . . . . . . . . . . . . . . . . . . . . . . . . . . . . . . . . . . . . . . . . . . . .",
" . + + + + + + + + + + + > , ' ) ! ~ { ] ^ / ( _ : < [ } | 1 2 3 # 4 5 6 7 8 9 0 a b c d e f g .",
" . + + + + + + + > ) ! { ^ ^ / ( _ : h h } 1 1 2 i # 4 5 6 6 9 0 0 j b c d e k g f e d e f g l .",
" . + + + + + + > m n o . p q . r r . s t . o u v v w x . w y . z & . A B . C D E F G f f g l H .",
" . + + + + + + I J K L . M N . O P . Q R . S T U y V W . X Y . Z ` ..  M . t X...+.@.# g l H.$ .",
" . + + + + + + !.%.&.* . - N . Y.= ..-.; ..>.= q.,.'.) ..! Y ..~.{ ..).] . r.'.^./.(._ l H.$.# .",
" . + + + + + + ~ S.:.< ..[ O ..}.| ..1.2 . u.3.4.5.=.6 . - Z ..7.8 ..-.9 ..>.=.0.a @.b H.$.#._ .",
" . + + + + +.c ].d ..).).).).).).).).) ..) . . . ..) ..) ..) ..) . ..) . . . . ..9.e.f.$.#.g.b .",
" . + + + +.c >.h . M _ _ _ _ H H H.(.(.(.& M.) M M M.&.&.&.&.&.& M.& M.i.i M.) ..j.k G.#.g.b.l .",
" . + + +.c > ' ( . M _ _ _ _ _ H H H.(.& M.).).).).).).i.).i.i.i.i.i M.i.i.i.) . Q.m.n.g.b.l.f .",
" . + +.c > ' ) _ . M _ _ _ _ H H H H.(.(.i.) . . ..).).).i.i.i.i.).i.).).i.i.) ..<.o.p._.l.f.q .",
" . +.c > , ) I : . M _ _ _ _ _ _ H H H.&.i.).).).).).i.i.i M.i.i M M.i.).i.i.) ..r.o =.l.f.q G .",
" ..c > , ) I ! < . M _ _ _ H H H H H.(.& M.i.).i.).).).i.i.i.i.i.i M.i.).i.i . ..r.s.t.f.q G.n .",
" . > , ) I ! ~ h . M _ _ _ _ H H H H H.& M.i.).).).).) ..).).i.i.i.i.i.).i.i.) ..r.u.v.q G.n = .",
" . , ' I ! ~ { [ . M _ _ _ _ _ H H H.(.&.i.).) . ..).i ..) . ..).).).).).i.i . .. .w.x G.n.p.y .",
" . ' I ! ~ { ] | . M _ _ _ _ _ _ H H.( M M.i.).).) M M.).i.).) . ..) ..) M M.) .. .z.A.n.p.y.t .",
" . I ! ~ { ].h 1 . M _ _ _ _ H _ H H.& M.&.i.i.).).i M.) ..).).) . ..).).i M.) .. .B.C.p.y.t.v .",
" . ! ~ { ] ^ / 2 . M _ _ _ _ _ _ H.(.(.&.&.& M.& M.i.i.i.).).).).).).).i M M.) . $.B.D =.t.v.x .",
" . ~ { ] ^ / ( i . M _ _ _ _ H H H.(.(.(.&.&.&.&.&.& M M M M M.i M.i.).i M M.) . $.&.D.t.v.x.A .",
" . { ] ^ / ( _ 3 . M _ _ _ _ _ _ H H.(.(.(.(.(.&.(.&.&.&.&.&.&.&.& M.i M M.&.) . $.E.F.v.x.A.C .",
" . ] ^.h ( _ : # . M _ _ _ _ H H H H.(.(.(.(.(.(.(.&.(.&.&.&.&.&.(.&.i M.&.&.) ..1.G.H.x.A.C.I .",
" . ^.h ( _ : < 4 . M _ _ _ _ _ H H H H.(.(.(.(.(.(.&.(.(.(.&.(.&.(.( M.i.&.&.) ..1 ;.J.A.C.D.F .",
" ..h ( _ : < h * . M _ _ _ _ _ H H H.(.(.(.(.(.(.(.(.(.(.&.(.(.(.(.&.&.i.& M.) ..1.K.L.C.D.F.H .",
" . / _ : < h } 6 . M _ _ _ _ _ _ H H.(.(.(.(.(.(.(.(.(.(.(.(.(.(.(.(.&.i.&.&.) ..*.K.M.D.F.H.J .",
" . _ : < h [ | 7 . M _ _ _ _ _ _ H H.(.(.(.(.(.(.(.(.(.(.(.(.(.(.&.&.& M M.&.) ..*.N.O.I.H.J.L .",
" . : < h [ | 1 8 . M _ _ _ _ _ H H H.(.(.&.(.(.(.(.(.(.(.(.(.(.(.&.(.&.i M M.) ..*.P.Q.H.J.L.M .",
" . < h [ | 1 2 9 ..) M M.i.i.i.i.i.i.i.).).).i.).i.i.i.).).i.).).).).i.) ..) . . L.R.S.J.L.M.O .",
" . h [ } 1 2 i 0.d.T . . . . . . . . . . . . . . . . . . . . . . . . . . . . . . $.R F.L.M.O.U .",
" . [ } 1 2 i 3 0 B.'.5 ..4 U . y r ..V B . m &.W.X.4 o . U s ..5 z . x.Y ..Z.4.W.`.K+ .M.O.Q.S .",
" . } 1 2 i 3 # j u+. J .++.< ..6+@ . p O . U.`+# C++ u ..<.* ..)+$ . w+% . s+&+#+*.z+ .O.Q.S F .",
" . | 2 i 3 # 5 a u+= L .+-.} .+$+; .+> T ..Y+, q.V+' W ..}.7 .+) O .+!.8 . &+' s+~.u.@.Q.S F+  .",
" . 2 i 3 # 4 * b v+{.Z . o C .+].V ..Z.5 ..X.V+^+/ o.W . x+( . m o ..W., ..X x+^.|.w+_.U F+ .@ .",
" . i 3 # 4 * 6 b.L+=+: X+;+<.3+[.3.3+,+*+}.{+; V+| `.]+| O X.[+1.=.[+-+,.=.!+1 P+~.m+_ F+ .@+_ .",
" . 3 # 4 * 6 7 0.g.U.(.e+2+3+2+4+5+6+7+8+8+9+9.k K.m+0.m.s.m.o.w.s.u.&.z.B.G ;.&.m+a.@+ .@+_+b .",
" . # 4 5 6 7 8 9 b k g l.$.#._.b.b.l G G.n =.y.t.x.A.A.I.F.F.J.L.M.O.Q.U.S+ .@+_.@+ + .@+_+b+c .",
" . . . . . . . . . . . . . . . . . . . . . . . . . . . . . . . . . . . . . . . . . . . . . . . ."};
